<svg width="107" height="107" viewBox="0 0 107 107" fill="none" xmlns="http://www.w3.org/2000/svg">
<circle cx="53.1667" cy="53.1667" r="53.1667" fill="black"/>
<path d="M25.5769 79.3943C19.8115 73.6289 19.8115 64.2813 25.5769 58.5159L57.4802 26.6126C63.2456 20.8471 72.5932 20.8471 78.3586 26.6126V26.6126C84.124 32.378 84.124 41.7256 78.3586 47.491L46.4553 79.3943C40.6899 85.1597 31.3423 85.1597 25.5769 79.3943V79.3943Z" fill="white"/>
<path d="M80.8014 23.8813C86.8871 29.967 86.8871 39.8338 80.8014 45.9195C74.7157 52.0051 64.8489 52.0051 58.7632 45.9195C52.6776 39.8338 52.6776 29.967 58.7632 23.8813C64.8489 17.7956 74.7157 17.7956 80.8014 23.8813Z" fill="black"/>
<path fill-rule="evenodd" clip-rule="evenodd" d="M79.505 44.6231C84.8747 39.2534 84.8747 30.5474 79.505 25.1777C74.1353 19.808 65.4293 19.808 60.0596 25.1777C54.6899 30.5474 54.6899 39.2534 60.0596 44.6231C65.4293 49.9928 74.1353 49.9928 79.505 44.6231ZM80.8014 45.9195C86.8871 39.8338 86.8871 29.967 80.8014 23.8813C74.7157 17.7956 64.8489 17.7956 58.7632 23.8813C52.6776 29.967 52.6776 39.8338 58.7632 45.9195C64.8489 52.0051 74.7157 52.0051 80.8014 45.9195Z" fill="white"/>
<circle cx="52.3682" cy="52.2544" r="15.0833" transform="rotate(-45 52.3682 52.2544)" fill="black" stroke="white"/>
<circle cx="35.0089" cy="69.8916" r="15.0833" transform="rotate(-45 35.0089 69.8916)" fill="black" stroke="white"/>
</svg>
