<svg width="107" height="107" viewBox="0 0 107 107" fill="none" xmlns="http://www.w3.org/2000/svg">
<circle cx="53.1667" cy="53.1667" r="53.1667" fill="black"/>
<path d="M20.166 36.667H86.166V69.667H20.166V36.667Z" fill="white"/>
<path d="M21.999 45.8337C21.999 43.8086 23.6406 42.167 25.6657 42.167H60.499C62.5241 42.167 64.1657 43.8086 64.1657 45.8337V60.5003C64.1657 62.5254 62.5241 64.167 60.499 64.167H25.6657C23.6406 64.167 21.999 62.5254 21.999 60.5003V45.8337Z" fill="black"/>
<path d="M69.666 45.8337C69.666 43.8086 71.3076 42.167 73.3327 42.167H82.4993C84.5244 42.167 86.166 43.8086 86.166 45.8337V60.5003C86.166 62.5254 84.5244 64.167 82.4993 64.167H73.3327C71.3076 64.167 69.666 62.5254 69.666 60.5003V45.8337Z" fill="black"/>
<path fill-rule="evenodd" clip-rule="evenodd" d="M84.3327 22.0003H21.9993V84.3337H84.3327V22.0003ZM20.166 20.167V86.167H86.166V20.167H20.166Z" fill="white"/>
<circle cx="30.25" cy="28.4165" r="2.75" fill="white"/>
<circle cx="30.25" cy="77.9165" r="2.75" fill="white"/>
<circle cx="39.417" cy="28.4165" r="2.75" fill="white"/>
<circle cx="39.417" cy="77.9165" r="2.75" fill="white"/>
<circle cx="48.583" cy="28.4165" r="2.75" fill="white"/>
<circle cx="48.583" cy="77.9165" r="2.75" fill="white"/>
<circle cx="57.75" cy="28.4165" r="2.75" fill="white"/>
<circle cx="57.75" cy="77.9165" r="2.75" fill="white"/>
<circle cx="66.917" cy="28.4165" r="2.75" fill="white"/>
<circle cx="66.917" cy="77.9165" r="2.75" fill="white"/>
<circle cx="76.083" cy="28.4165" r="2.75" fill="white"/>
<circle cx="76.083" cy="77.9165" r="2.75" fill="white"/>
<path fill-rule="evenodd" clip-rule="evenodd" d="M20.166 31.0105C20.4527 31.1119 20.7613 31.167 21.0827 31.167C22.6015 31.167 23.8327 29.9358 23.8327 28.417C23.8327 26.8982 22.6015 25.667 21.0827 25.667C20.7613 25.667 20.4527 25.7221 20.166 25.8235V31.0105Z" fill="white"/>
<path fill-rule="evenodd" clip-rule="evenodd" d="M20.166 80.5105C20.4527 80.6119 20.7613 80.667 21.0827 80.667C22.6015 80.667 23.8327 79.4358 23.8327 77.917C23.8327 76.3982 22.6015 75.167 21.0827 75.167C20.7613 75.167 20.4527 75.2221 20.166 75.3235V80.5105Z" fill="white"/>
<path fill-rule="evenodd" clip-rule="evenodd" d="M85.2493 25.667C83.7306 25.667 82.4993 26.8982 82.4993 28.417C82.4993 29.9358 83.7306 31.167 85.2493 31.167C85.5708 31.167 85.8793 31.1119 86.166 31.0105L86.166 25.8235C85.8793 25.7221 85.5708 25.667 85.2493 25.667Z" fill="white"/>
<path fill-rule="evenodd" clip-rule="evenodd" d="M85.2493 75.167C83.7306 75.167 82.4993 76.3982 82.4993 77.917C82.4993 79.4358 83.7306 80.667 85.2493 80.667C85.5708 80.667 85.8793 80.6119 86.166 80.5105L86.166 75.3235C85.8793 75.2221 85.5708 75.167 85.2493 75.167Z" fill="white"/>
</svg>
