<svg width="107" height="107" viewBox="0 0 107 107" fill="none" xmlns="http://www.w3.org/2000/svg">
<circle cx="53.1667" cy="53.8332" r="53.1667" fill="black"/>
<path fill-rule="evenodd" clip-rule="evenodd" d="M30.744 42.2958C31.4599 41.5798 32.6207 41.5798 33.3367 42.2958L35.9294 44.8885C36.6454 45.6044 36.6454 46.7652 35.9294 47.4812L28.9337 54.4769L35.7593 60.7337C36.5057 61.4179 36.5561 62.5776 35.8719 63.324L33.3942 66.0269C32.71 66.7733 31.5503 66.8237 30.804 66.1395L19.7439 56.0012C18.9745 55.2959 18.9483 54.0914 19.6864 53.3533L30.744 42.2958Z" fill="white"/>
<path fill-rule="evenodd" clip-rule="evenodd" d="M74.3136 42.2958C73.5977 41.5798 72.4369 41.5798 71.7209 42.2958L69.1282 44.8885C68.4122 45.6044 68.4122 46.7652 69.1282 47.4812L76.1239 54.4769L69.2983 60.7337C68.552 61.4179 68.5015 62.5776 69.1857 63.324L71.6634 66.0269C72.3476 66.7733 73.5073 66.8237 74.2537 66.1395L85.3137 56.0012C86.0831 55.2959 86.1093 54.0914 85.3712 53.3533L74.3136 42.2958Z" fill="white"/>
<path d="M59.7802 29.8526C60.1778 28.9214 61.2549 28.4888 62.1861 28.8863L66.3727 30.6734C67.304 31.0709 67.7366 32.1481 67.3391 33.0793L48.8575 76.3748C48.46 77.306 47.3829 77.7387 46.4516 77.3412L42.265 75.554C41.3338 75.1565 40.9011 74.0793 41.2986 73.1481L59.7802 29.8526Z" fill="white"/>
</svg>
