<svg width="107" height="107" viewBox="0 0 107 107" fill="none" xmlns="http://www.w3.org/2000/svg">
<circle cx="53.1667" cy="53.8332" r="53.1667" fill="black"/>
<path d="M66.5493 52C68.2706 52 69.666 53.3954 69.666 55.1167L69.666 58.05C69.666 59.7713 68.2706 61.1667 66.5493 61.1667L63.616 61.1667C61.8947 61.1667 60.4993 59.7713 60.4993 58.05L60.4993 55.1167C60.4993 53.3954 61.8947 52 63.616 52L66.5493 52Z" fill="white"/>
<path d="M46.3824 52C48.1036 52 49.499 53.3954 49.499 55.1167L49.499 58.05C49.499 59.7713 48.1036 61.1667 46.3824 61.1667L43.449 61.1667C41.7277 61.1667 40.3324 59.7713 40.3324 58.05L40.3324 55.1167C40.3324 53.3954 41.7277 52 43.449 52L46.3824 52Z" fill="white"/>
<path d="M25.666 28.1667C25.666 26.1416 27.3076 24.5 29.3327 24.5H32.9993C35.0244 24.5 36.666 26.1416 36.666 28.1667V74C36.666 76.025 35.0244 77.6667 32.9993 77.6667H29.3327C27.3076 77.6667 25.666 76.025 25.666 74V28.1667Z" fill="black"/>
<path fill-rule="evenodd" clip-rule="evenodd" d="M32.9993 26.3333H29.3327C28.3202 26.3333 27.4993 27.1541 27.4993 28.1667V74C27.4993 75.0125 28.3202 75.8333 29.3327 75.8333H32.9993C34.0119 75.8333 34.8327 75.0125 34.8327 74V28.1667C34.8327 27.1541 34.0119 26.3333 32.9993 26.3333ZM29.3327 24.5C27.3076 24.5 25.666 26.1416 25.666 28.1667V74C25.666 76.025 27.3076 77.6667 29.3327 77.6667H32.9993C35.0244 77.6667 36.666 76.025 36.666 74V28.1667C36.666 26.1416 35.0244 24.5 32.9993 24.5H29.3327Z" fill="white"/>
<path d="M73.333 22.6667C73.333 20.6416 74.9746 19 76.9997 19H80.6663C82.6914 19 84.333 20.6416 84.333 22.6667V74C84.333 76.025 82.6914 77.6667 80.6663 77.6667H76.9997C74.9746 77.6667 73.333 76.025 73.333 74V22.6667Z" fill="black"/>
<path fill-rule="evenodd" clip-rule="evenodd" d="M80.6663 20.8333H76.9997C75.9872 20.8333 75.1663 21.6541 75.1663 22.6667V74C75.1663 75.0125 75.9872 75.8333 76.9997 75.8333H80.6663C81.6789 75.8333 82.4997 75.0125 82.4997 74V22.6667C82.4997 21.6541 81.6789 20.8333 80.6663 20.8333ZM76.9997 19C74.9746 19 73.333 20.6416 73.333 22.6667V74C73.333 76.025 74.9746 77.6667 76.9997 77.6667H80.6663C82.6914 77.6667 84.333 76.025 84.333 74V22.6667C84.333 20.6416 82.6914 19 80.6663 19H76.9997Z" fill="white"/>
<path d="M81.2157 37.3335C81.9245 37.3335 82.499 37.9081 82.499 38.6168L82.499 45.2168C82.499 45.9256 81.9245 46.5002 81.2157 46.5002L28.7824 46.5002C28.0736 46.5002 27.499 45.9256 27.499 45.2168L27.499 38.6168C27.499 37.9081 28.0736 37.3335 28.7824 37.3335L81.2157 37.3335Z" fill="white"/>
<path d="M65.9993 64.8335C68.0244 64.8335 69.666 66.4751 69.666 68.5002L69.666 72.1668C69.666 74.1919 68.0244 75.8335 65.9993 75.8335L43.9993 75.8335C41.9743 75.8335 40.3327 74.1919 40.3327 72.1668L40.3327 68.5002C40.3327 66.4751 41.9743 64.8335 43.9993 64.8335L65.9993 64.8335Z" fill="black"/>
<path fill-rule="evenodd" clip-rule="evenodd" d="M67.8327 72.1668L67.8327 68.5002C67.8327 67.4876 67.0119 66.6668 65.9993 66.6668L43.9993 66.6668C42.9868 66.6668 42.166 67.4876 42.166 68.5002L42.166 72.1668C42.166 73.1794 42.9868 74.0002 43.9993 74.0002L65.9993 74.0002C67.0119 74.0002 67.8327 73.1794 67.8327 72.1668ZM69.666 68.5002C69.666 66.4751 68.0244 64.8335 65.9993 64.8335L43.9993 64.8335C41.9743 64.8335 40.3327 66.4751 40.3327 68.5002L40.3327 72.1668C40.3327 74.1919 41.9743 75.8335 43.9993 75.8335L65.9993 75.8335C68.0244 75.8335 69.666 74.1919 69.666 72.1668L69.666 68.5002Z" fill="white"/>
<path d="M81.2163 79.5C82.9376 79.5 84.333 80.8954 84.333 82.6167L84.333 85.55C84.333 87.2713 82.9376 88.6667 81.2163 88.6667L28.783 88.6667C27.0617 88.6667 25.6663 87.2713 25.6663 85.55L25.6663 82.6167C25.6663 80.8954 27.0617 79.5 28.783 79.5L81.2163 79.5Z" fill="white"/>
<path d="M93.499 64.8332C93.499 65.8457 92.6782 66.6665 91.6657 66.6665L87.999 66.6665C86.9865 66.6665 86.1657 65.8457 86.1657 64.8332L86.1657 50.1665C86.1657 49.154 86.9865 48.3332 87.999 48.3332L91.6657 48.3332C92.6782 48.3332 93.499 49.154 93.499 50.1665L93.499 64.8332Z" fill="white"/>
<path d="M21.999 64.8332C21.999 65.8457 21.1782 66.6665 20.1657 66.6665L16.499 66.6665C15.4865 66.6665 14.6657 65.8457 14.6657 64.8332L14.6657 50.1665C14.6657 49.154 15.4865 48.3332 16.499 48.3332L20.1657 48.3332C21.1782 48.3332 21.999 49.154 21.999 50.1665L21.999 64.8332Z" fill="white"/>
</svg>
