<svg width="107" height="107" viewBox="0 0 107 107" fill="none" xmlns="http://www.w3.org/2000/svg">
<circle cx="53.1667" cy="53.1667" r="53.1667" fill="black"/>
<path d="M45.8327 43.0838C45.8327 45.6151 43.7807 47.6672 41.2493 47.6672C38.718 47.6672 36.666 45.6151 36.666 43.0838C36.666 40.5525 38.718 38.5005 41.2493 38.5005C43.7807 38.5005 45.8327 40.5525 45.8327 43.0838Z" fill="white"/>
<path d="M45.8327 63.2503C45.8327 65.7816 43.7807 67.8337 41.2493 67.8337C38.718 67.8337 36.666 65.7816 36.666 63.2503C36.666 60.719 38.718 58.667 41.2493 58.667C43.7807 58.667 45.8327 60.719 45.8327 63.2503Z" fill="white"/>
<path d="M65.9997 43.0838C65.9997 45.6151 63.9476 47.6672 61.4163 47.6672C58.885 47.6672 56.833 45.6151 56.833 43.0838C56.833 40.5525 58.885 38.5005 61.4163 38.5005C63.9476 38.5005 65.9997 40.5525 65.9997 43.0838Z" fill="white"/>
<path d="M65.9997 63.2503C65.9997 65.7816 63.9476 67.8337 61.4163 67.8337C58.885 67.8337 56.833 65.7816 56.833 63.2503C56.833 60.719 58.885 58.667 61.4163 58.667C63.9476 58.667 65.9997 60.719 65.9997 63.2503Z" fill="white"/>
<path d="M40.333 42.167H62.333V66.0003H40.333V42.167Z" fill="black"/>
<path fill-rule="evenodd" clip-rule="evenodd" d="M23.832 64.167L78.832 64.167L78.832 66.0003L23.832 66.0003L23.832 64.167Z" fill="white"/>
<path fill-rule="evenodd" clip-rule="evenodd" d="M39.9374 24.7505H63.6427L80.665 42.7186V66.3658L63.6427 84.3338H39.9374L22.915 66.3658V42.7186L39.9374 24.7505ZM40.726 26.5838L24.7484 43.4491V65.6352L40.726 82.5005H62.8541L78.8317 65.6352V43.4491L62.8541 26.5838H40.726Z" fill="white"/>
<path fill-rule="evenodd" clip-rule="evenodd" d="M39.415 83.417V25.667H41.2484V83.417H39.415Z" fill="white"/>
<path fill-rule="evenodd" clip-rule="evenodd" d="M23.832 42.167L78.832 42.167L78.832 44.0003L23.832 44.0003L23.832 42.167Z" fill="white"/>
<path fill-rule="evenodd" clip-rule="evenodd" d="M61.415 83.417V25.667H63.2484V83.417H61.415Z" fill="white"/>
<path d="M45.8327 24.7503C45.8327 27.2816 43.7807 29.3337 41.2493 29.3337C38.718 29.3337 36.666 27.2816 36.666 24.7503C36.666 22.219 38.718 20.167 41.2493 20.167C43.7807 20.167 45.8327 22.219 45.8327 24.7503Z" fill="white"/>
<path d="M65.9997 24.7503C65.9997 27.2816 63.9476 29.3337 61.4163 29.3337C58.885 29.3337 56.833 27.2816 56.833 24.7503C56.833 22.219 58.885 20.167 61.4163 20.167C63.9476 20.167 65.9997 22.219 65.9997 24.7503Z" fill="white"/>
<path d="M65.9997 81.5838C65.9997 84.1151 63.9476 86.1672 61.4163 86.1672C58.885 86.1672 56.833 84.1151 56.833 81.5838C56.833 79.0525 58.885 77.0005 61.4163 77.0005C63.9476 77.0005 65.9997 79.0525 65.9997 81.5838Z" fill="white"/>
<path d="M45.8327 81.5838C45.8327 84.1151 43.7807 86.1672 41.2493 86.1672C38.718 86.1672 36.666 84.1151 36.666 81.5838C36.666 79.0525 38.718 77.0005 41.2493 77.0005C43.7807 77.0005 45.8327 79.0525 45.8327 81.5838Z" fill="white"/>
<path d="M29.3327 65.0838C29.3327 67.6151 27.2807 69.6672 24.7493 69.6672C22.218 69.6672 20.166 67.6151 20.166 65.0838C20.166 62.5525 22.218 60.5005 24.7493 60.5005C27.2807 60.5005 29.3327 62.5525 29.3327 65.0838Z" fill="white"/>
<path d="M29.3327 43.0838C29.3327 45.6151 27.2807 47.6672 24.7493 47.6672C22.218 47.6672 20.166 45.6151 20.166 43.0838C20.166 40.5525 22.218 38.5005 24.7493 38.5005C27.2807 38.5005 29.3327 40.5525 29.3327 43.0838Z" fill="white"/>
<path d="M84.3327 43.0838C84.3327 45.6151 82.2807 47.6672 79.7493 47.6672C77.218 47.6672 75.166 45.6151 75.166 43.0838C75.166 40.5525 77.218 38.5005 79.7493 38.5005C82.2807 38.5005 84.3327 40.5525 84.3327 43.0838Z" fill="white"/>
<path d="M84.3327 65.0838C84.3327 67.6151 82.2807 69.6672 79.7493 69.6672C77.218 69.6672 75.166 67.6151 75.166 65.0838C75.166 62.5525 77.218 60.5005 79.7493 60.5005C82.2807 60.5005 84.3327 62.5525 84.3327 65.0838Z" fill="white"/>
</svg>
