<svg width="107" height="108" viewBox="0 0 107 108" fill="none" xmlns="http://www.w3.org/2000/svg">
<circle cx="53.1667" cy="54.0002" r="53.1667" fill="black"/>
<path d="M22 70.5C22 61.3873 29.3873 54 38.5 54H67.8333C76.946 54 84.3333 61.3873 84.3333 70.5C84.3333 79.6127 76.946 87 67.8333 87H38.5C29.3873 87 22 79.6127 22 70.5Z" fill="white"/>
<path d="M36.667 63.1668C36.667 62.1543 37.4878 61.3335 38.5003 61.3335H40.3337C41.3462 61.3335 42.167 62.1543 42.167 63.1668V65.0002H36.667V63.1668Z" fill="black"/>
<path d="M42.167 77.8337C42.167 78.8462 41.3462 79.667 40.3337 79.667L38.5003 79.667C37.4878 79.667 36.667 78.8462 36.667 77.8337L36.667 76.0003L42.167 76.0003L42.167 77.8337Z" fill="black"/>
<path d="M29.334 68.6668C29.334 67.6543 30.1548 66.8335 31.1673 66.8335H47.6673C48.6798 66.8335 49.5007 67.6543 49.5007 68.6668V72.3335C49.5007 73.346 48.6798 74.1668 47.6673 74.1668H31.1673C30.1548 74.1668 29.334 73.346 29.334 72.3335V68.6668Z" fill="black"/>
<path d="M77.0003 70.5002C77.0003 75.5628 72.8963 79.6668 67.8337 79.6668C62.771 79.6668 58.667 75.5628 58.667 70.5002C58.667 65.4376 62.771 61.3335 67.8337 61.3335C72.8963 61.3335 77.0003 65.4376 77.0003 70.5002Z" fill="black"/>
<path d="M49.5 53.0835C49.5 51.5647 50.7312 50.3335 52.25 50.3335C53.7688 50.3335 55 51.5647 55 53.0835V56.7502C55 58.2689 53.7688 59.5002 52.25 59.5002C50.7312 59.5002 49.5 58.2689 49.5 56.7502V53.0835Z" fill="white"/>
<path d="M76.083 45.75C77.6018 45.75 78.833 46.9812 78.833 48.5C78.833 50.0188 77.6018 51.25 76.083 51.25L57.7497 51.25C56.2309 51.25 54.9997 50.0188 54.9997 48.5C54.9997 46.9812 56.2309 45.75 57.7497 45.75L76.083 45.75Z" fill="white"/>
<path d="M76.083 32C77.6018 32 78.833 33.2312 78.833 34.75C78.833 36.2688 77.6018 37.5 76.083 37.5C74.5642 37.5 73.333 36.2688 73.333 34.75C73.333 33.2312 74.5642 32 76.083 32Z" fill="white"/>
<path d="M46.75 32C48.2688 32 49.5 33.2312 49.5 34.75C49.5 36.2688 48.2688 37.5 46.75 37.5L41.25 37.5C39.7312 37.5 38.5 36.2688 38.5 34.75C38.5 33.2312 39.7312 32 41.25 32L46.75 32Z" fill="white"/>
<path d="M21.083 28.3335C22.6018 28.3335 23.833 29.5647 23.833 31.0835C23.833 32.6023 22.6018 33.8335 21.083 33.8335C19.5642 33.8335 18.333 32.6023 18.333 31.0835C18.333 29.5647 19.5642 28.3335 21.083 28.3335Z" fill="white"/>
<path d="M24.75 21C26.2688 21 27.5 22.2312 27.5 23.75C27.5 25.2688 26.2688 26.5 24.75 26.5C23.2312 26.5 22 25.2688 22 23.75C22 22.2312 23.2312 21 24.75 21Z" fill="white"/>
<path d="M65.083 20.0835C66.6018 20.0835 67.833 21.3147 67.833 22.8335C67.833 24.3523 66.6018 25.5835 65.083 25.5835L55.9163 25.5835C54.3976 25.5835 53.1663 24.3523 53.1663 22.8335C53.1663 21.3147 54.3976 20.0835 55.9163 20.0835L65.083 20.0835Z" fill="white"/>
<path fill-rule="evenodd" clip-rule="evenodd" d="M17.417 28.792C17.417 23.4763 21.7263 19.167 27.042 19.167H66.0003C68.0254 19.167 69.667 20.8086 69.667 22.8337C69.667 24.8587 68.0254 26.5003 66.0003 26.5003H27.042C25.7763 26.5003 24.7503 27.5263 24.7503 28.792C24.7503 30.0576 25.7763 31.0837 27.042 31.0837H77.0003C82.5692 31.0837 87.0837 35.5981 87.0837 41.167C87.0837 46.7359 82.5692 51.2503 77.0003 51.2503H59.5837C57.5586 51.2503 55.917 52.8919 55.917 54.917V55.8337H48.5837V54.917C48.5837 48.8419 53.5085 43.917 59.5837 43.917H77.0003C78.5191 43.917 79.7503 42.6858 79.7503 41.167C79.7503 39.6482 78.5191 38.417 77.0003 38.417H27.042C21.7262 38.417 17.417 34.1077 17.417 28.792ZM27.042 21.0003C22.7388 21.0003 19.2503 24.4888 19.2503 28.792C19.2503 33.0952 22.7388 36.5837 27.042 36.5837H77.0003C79.5316 36.5837 81.5837 38.6357 81.5837 41.167C81.5837 43.6983 79.5316 45.7503 77.0003 45.7503H59.5837C54.8304 45.7503 50.9222 49.3681 50.4622 54.0003H54.1597C54.5961 51.3991 56.8584 49.417 59.5837 49.417H77.0003C81.5567 49.417 85.2503 45.7233 85.2503 41.167C85.2503 36.6106 81.5567 32.917 77.0003 32.917H27.042C24.7638 32.917 22.917 31.0702 22.917 28.792C22.917 26.5138 24.7638 24.667 27.042 24.667H66.0003C67.0128 24.667 67.8337 23.8462 67.8337 22.8337C67.8337 21.8211 67.0128 21.0003 66.0003 21.0003H27.042Z" fill="white"/>
</svg>
