<svg width="107" height="107" viewBox="0 0 107 107" fill="none" xmlns="http://www.w3.org/2000/svg">
<circle cx="53.1667" cy="53.8332" r="53.1667" fill="black"/>
<path d="M75.1667 51.9995C76.1792 51.9995 77 52.8203 77 53.8328L77 79.4995C77 80.512 76.1792 81.3328 75.1667 81.3328L64.1667 81.3328C63.1541 81.3328 62.3333 80.512 62.3333 79.4995L62.3333 53.8328C62.3333 52.8203 63.1541 51.9995 64.1667 51.9995L75.1667 51.9995Z" fill="white"/>
<path d="M58.6667 35.4995C59.6792 35.4995 60.5 36.3203 60.5 37.3328L60.5 79.4995C60.5 80.512 59.6792 81.3328 58.6667 81.3328L47.6667 81.3328C46.6541 81.3328 45.8333 80.512 45.8333 79.4995L45.8333 37.3328C45.8333 36.3203 46.6541 35.4995 47.6667 35.4995L58.6667 35.4995Z" fill="white"/>
<path d="M42.1667 26.333C43.1792 26.333 44 27.1538 44 28.1663L44 79.4997C44 80.5122 43.1792 81.333 42.1667 81.333L31.1667 81.333C30.1541 81.333 29.3333 80.5122 29.3333 79.4997L29.3333 28.1663C29.3333 27.1538 30.1541 26.333 31.1667 26.333L42.1667 26.333Z" fill="white"/>
<path d="M41.4337 72.166C41.8387 72.166 42.167 72.4943 42.167 72.8993L42.167 76.9327C42.167 77.3377 41.8387 77.666 41.4337 77.666L31.9003 77.666C31.4953 77.666 31.167 77.3377 31.167 76.9327L31.167 72.8993C31.167 72.4943 31.4953 72.166 31.9003 72.166L41.4337 72.166Z" fill="black"/>
<path d="M57.9337 72.166C58.3387 72.166 58.667 72.4943 58.667 72.8993L58.667 76.9327C58.667 77.3377 58.3387 77.666 57.9337 77.666L48.4003 77.666C47.9953 77.666 47.667 77.3377 47.667 76.9327L47.667 72.8993C47.667 72.4943 47.9953 72.166 48.4003 72.166L57.9337 72.166Z" fill="black"/>
<path d="M74.4337 72.166C74.8387 72.166 75.167 72.4943 75.167 72.8993L75.167 76.9327C75.167 77.3377 74.8387 77.666 74.4337 77.666L64.9003 77.666C64.4953 77.666 64.167 77.3377 64.167 76.9327L64.167 72.8993C64.167 72.4943 64.4953 72.166 64.9003 72.166L74.4337 72.166Z" fill="black"/>
<path d="M27.5 75.8328C27.5 74.8203 28.3208 73.9995 29.3333 73.9995H77C78.0125 73.9995 78.8333 74.8203 78.8333 75.8328V79.4995C78.8333 80.512 78.0125 81.3328 77 81.3328H29.3333C28.3208 81.3328 27.5 80.512 27.5 79.4995V75.8328Z" fill="white"/>
<path d="M73.8837 53.833C74.5924 53.833 75.167 54.4076 75.167 55.1163L75.167 58.0497C75.167 58.7584 74.5924 59.333 73.8837 59.333L65.4503 59.333C64.7416 59.333 64.167 58.7584 64.167 58.0497L64.167 55.1163C64.167 54.4076 64.7416 53.833 65.4503 53.833L73.8837 53.833Z" fill="black"/>
<path d="M57.3837 46.4995C58.0924 46.4995 58.667 47.0741 58.667 47.7828L58.667 50.7162C58.667 51.4249 58.0924 51.9995 57.3837 51.9995L48.9503 51.9995C48.2416 51.9995 47.667 51.4249 47.667 50.7162L47.667 47.7828C47.667 47.0741 48.2416 46.4995 48.9503 46.4995L57.3837 46.4995Z" fill="black"/>
<path d="M57.3837 31.833C58.0924 31.833 58.667 32.4076 58.667 33.1163L58.667 36.0497C58.667 36.7584 58.0924 37.333 57.3837 37.333L48.9503 37.333C48.2416 37.333 47.667 36.7584 47.667 36.0497L47.667 33.1163C47.667 32.4076 48.2416 31.833 48.9503 31.833L57.3837 31.833Z" fill="black"/>
<path d="M57.3837 64.833C58.0924 64.833 58.667 65.4076 58.667 66.1163L58.667 69.0497C58.667 69.7584 58.0924 70.333 57.3837 70.333L48.9503 70.333C48.2416 70.333 47.667 69.7584 47.667 69.0497L47.667 66.1163C47.667 65.4076 48.2416 64.833 48.9503 64.833L57.3837 64.833Z" fill="black"/>
<path d="M40.8837 64.833C41.5924 64.833 42.167 65.4076 42.167 66.1163L42.167 69.0497C42.167 69.7584 41.5924 70.333 40.8837 70.333L32.4503 70.333C31.7416 70.333 31.167 69.7584 31.167 69.0497L31.167 66.1163C31.167 65.4076 31.7416 64.833 32.4503 64.833L40.8837 64.833Z" fill="black"/>
<path d="M40.8837 46.4995C41.5924 46.4995 42.167 47.0741 42.167 47.7828L42.167 50.7162C42.167 51.4249 41.5924 51.9995 40.8837 51.9995L32.4503 51.9995C31.7416 51.9995 31.167 51.4249 31.167 50.7162L31.167 47.7828C31.167 47.0741 31.7416 46.4995 32.4503 46.4995L40.8837 46.4995Z" fill="black"/>
<path d="M40.8837 28.166C41.5924 28.166 42.167 28.7406 42.167 29.4493L42.167 32.3827C42.167 33.0914 41.5924 33.666 40.8837 33.666L32.4503 33.666C31.7416 33.666 31.167 33.0914 31.167 32.3827L31.167 29.4493C31.167 28.7406 31.7416 28.166 32.4503 28.166L40.8837 28.166Z" fill="black"/>
<path d="M28.967 39.166C28.6632 39.166 28.417 39.4123 28.417 39.716L28.417 40.4493C28.417 40.7531 28.6632 40.9993 28.967 40.9993L29.7003 40.9993C30.0041 40.9993 30.2503 40.7531 30.2503 40.4493L30.2503 39.716C30.2503 39.4123 30.0041 39.166 29.7003 39.166L28.967 39.166Z" fill="black"/>
<path d="M28.967 57.4995C28.6632 57.4995 28.417 57.7458 28.417 58.0495L28.417 58.7828C28.417 59.0866 28.6632 59.3328 28.967 59.3328L29.7003 59.3328C30.0041 59.3328 30.2503 59.0866 30.2503 58.7828L30.2503 58.0495C30.2503 57.7458 30.0041 57.4995 29.7003 57.4995L28.967 57.4995Z" fill="black"/>
<path d="M45.467 57.4995C45.1632 57.4995 44.917 57.7458 44.917 58.0495L44.917 58.7828C44.917 59.0866 45.1632 59.3328 45.467 59.3328L46.2003 59.3328C46.5041 59.3328 46.7503 59.0866 46.7503 58.7828L46.7503 58.0495C46.7503 57.7458 46.5041 57.4995 46.2003 57.4995L45.467 57.4995Z" fill="black"/>
<path d="M45.467 39.166C45.1632 39.166 44.917 39.4123 44.917 39.716L44.917 40.4493C44.917 40.7531 45.1632 40.9993 45.467 40.9993L46.2003 40.9993C46.5041 40.9993 46.7503 40.7531 46.7503 40.4493L46.7503 39.716C46.7503 39.4123 46.5041 39.166 46.2003 39.166L45.467 39.166Z" fill="black"/>
<path fill-rule="evenodd" clip-rule="evenodd" d="M42.167 35.4993H31.167V35.3159H42.167V35.4993Z" fill="black"/>
<path fill-rule="evenodd" clip-rule="evenodd" d="M42.167 44.6658H31.167V44.4824H42.167V44.6658Z" fill="black"/>
<path fill-rule="evenodd" clip-rule="evenodd" d="M58.667 44.6658H47.667V44.4824H58.667V44.6658Z" fill="black"/>
<path fill-rule="evenodd" clip-rule="evenodd" d="M42.167 53.8332H31.167V53.2832H42.167V53.8332Z" fill="black"/>
<path fill-rule="evenodd" clip-rule="evenodd" d="M58.667 53.8332H47.667V53.2832H58.667V53.8332Z" fill="black"/>
<path fill-rule="evenodd" clip-rule="evenodd" d="M42.167 62.9993H31.167V62.8159H42.167V62.9993Z" fill="black"/>
<path fill-rule="evenodd" clip-rule="evenodd" d="M58.667 62.9993H47.667V62.8159H58.667V62.9993Z" fill="black"/>
<path fill-rule="evenodd" clip-rule="evenodd" d="M75.167 62.9993H64.167V62.8159H75.167V62.9993Z" fill="black"/>
</svg>
